<svg width="1379" height="314" viewBox="0 0 1379 314" fill="none" xmlns="http://www.w3.org/2000/svg">
<path d="M1090.91 144.453L978.411 269.453H964.464V160.602H921.964V144.602H980.464V243.254L1069.38 144.453H1090.91Z" fill="black"/>
<path d="M1090.91 269.5H1074.91V179H1090.91V269.5Z" fill="black"/>
<path fill-rule="evenodd" clip-rule="evenodd" d="M263.5 0.970215L312.093 105H1379V121H301.907L279.5 73.0299V313.653L213 197.153V273.296L146.432 160.5H0V144.5H155.568L197 214.704V136.847L263.5 253.347V0.970215Z" fill="black"/>
<path d="M598 160.5V144.5H557.5V241.386L468.315 147.006L454.5 147.01V253.5H425V269.5H470.5V172.614L562.191 269.5H573.5V160.5H598Z" fill="black"/>
<path fill-rule="evenodd" clip-rule="evenodd" d="M890.621 211.331C896.656 209.301 902.233 206.07 906.358 200.827C910.927 195.02 913 187.656 913 179C913 170.1 910.542 162.696 905.445 157.052C900.485 151.559 893.798 148.599 886.974 146.919C875.989 144.216 862.087 144.339 849.102 144.455C846.522 144.478 843.978 144.5 841.5 144.5H833.5V269.5H849.5V215.652C855.019 216.38 861.722 217.739 868.602 219.839C879.482 223.161 889.813 228.041 896.528 234.336C903.897 241.244 908.961 248.268 912.166 253.535C913.766 256.163 914.893 258.337 915.604 259.814C915.96 260.553 916.211 261.115 916.364 261.471C916.441 261.649 916.493 261.776 916.522 261.847L916.539 261.888L916.547 261.908L916.549 261.913L919.5 269.5H936.5L934.349 263.573L931.461 256.112L924 259C931.461 256.112 931.46 256.11 931.459 256.108L931.443 256.067L931.416 256C931.396 255.947 931.368 255.88 931.335 255.798C931.268 255.634 931.176 255.413 931.057 255.138C930.82 254.588 930.478 253.823 930.021 252.873C929.107 250.976 927.734 248.337 925.834 245.215C922.039 238.982 916.103 230.756 907.472 222.664C902.637 218.131 896.794 214.389 890.621 211.331ZM849.5 160.463V199.091C864.112 199.23 875.794 199.053 884.304 196.548C889.022 195.16 891.956 193.256 893.783 190.934C895.573 188.659 897 185.094 897 179C897 173.15 895.458 169.866 893.57 167.776C891.546 165.534 888.264 163.714 883.151 162.456C874.312 160.281 862.963 160.364 849.96 160.459L849.5 160.463Z" fill="black"/>
<path fill-rule="evenodd" clip-rule="evenodd" d="M622 144.5H614V269.5H622C641.265 269.5 664.533 269.019 683.021 261.11C692.489 257.06 701.025 250.944 707.134 241.743C713.242 232.541 716.5 220.894 716.5 206.5C716.5 192.109 713.243 180.503 707.108 171.376C700.972 162.246 692.403 156.263 682.928 152.351C664.456 144.725 641.175 144.5 622 144.5ZM676.822 167.14C663.817 161.771 647.11 160.722 630 160.537V253.45C647.044 253.212 663.745 251.953 676.729 246.399C684.011 243.284 689.788 238.942 693.804 232.893C697.82 226.843 700.5 218.446 700.5 206.5C700.5 194.551 697.819 186.238 693.829 180.301C689.841 174.367 684.097 170.143 676.822 167.14Z" fill="black"/>
<path d="M809 160.5V144.5H733.5V269.5H809V253.5H749.5V215H809V199H749.5V160.5H809Z" fill="black"/>
<path d="M1194.5 253.5H1140V144.5H1124V269.5H1194.5V253.5Z" fill="black"/>
<path d="M1285.5 253.5H1231V144.5H1215V269.5H1285.5V253.5Z" fill="black"/>
<path d="M1379 160.5V144.5H1303.5V269.5H1379V253.5H1319.5V215H1379V199H1319.5V160.5H1379Z" fill="black"/>
<path fill-rule="evenodd" clip-rule="evenodd" d="M365 253.5C390.681 253.5 411.5 232.681 411.5 207C411.5 181.319 390.681 160.5 365 160.5C339.319 160.5 318.5 181.319 318.5 207C318.5 232.681 339.319 253.5 365 253.5ZM365 269.5C399.518 269.5 427.5 241.518 427.5 207C427.5 172.482 399.518 144.5 365 144.5C330.482 144.5 302.5 172.482 302.5 207C302.5 241.518 330.482 269.5 365 269.5Z" fill="black"/>
</svg>
