<svg width="1379" height="314" viewBox="0 0 1379 314" fill="none" xmlns="http://www.w3.org/2000/svg">
<path fill-rule="evenodd" clip-rule="evenodd" d="M849.273 159.738V198.36C849.506 198.364 849.74 198.369 849.977 198.373C864.26 198.499 875.705 198.288 884.077 195.824C888.795 194.435 891.729 192.531 893.556 190.209C895.346 187.935 896.773 184.369 896.773 178.275C896.773 172.425 895.231 169.142 893.343 167.051C891.319 164.81 888.037 162.989 882.924 161.731C874.085 159.556 862.736 159.639 849.733 159.735C849.58 159.736 849.427 159.737 849.273 159.738ZM897.012 207.732C900.452 205.835 903.571 203.356 906.13 200.103C910.7 194.295 912.773 186.931 912.773 178.275C912.773 169.376 910.315 161.972 905.218 156.328C900.258 150.835 893.571 147.874 886.747 146.195C875.762 143.492 861.86 143.615 848.875 143.73C846.295 143.753 843.751 143.775 841.273 143.775H833.273V269H849.273V214.375C849.605 214.379 849.937 214.382 850.269 214.385C856.067 214.513 862.739 214.845 869.51 215.872C880.378 217.521 890.083 220.782 896.301 226.612C903.279 233.154 908.257 241.533 911.523 248.534C913.137 251.992 914.287 255.012 915.027 257.146C915.396 258.21 915.66 259.047 915.828 259.599C915.911 259.875 915.97 260.08 916.006 260.205C916.011 260.224 916.016 260.241 916.02 260.256C916.03 260.292 916.038 260.317 916.042 260.333L916.043 260.337L916.044 260.34L916.045 260.343L916.047 260.351L918.104 268.067L918.359 269H934.74L933.564 263.944L931.503 256.214L923.773 258.275C931.503 256.214 931.502 256.212 931.502 256.21L931.498 256.195L931.49 256.167L931.469 256.088C931.451 256.024 931.427 255.939 931.397 255.833C931.337 255.622 931.252 255.328 931.14 254.959C930.917 254.223 930.588 253.185 930.144 251.905C929.259 249.351 927.909 245.809 926.022 241.767C922.289 233.768 916.267 223.397 907.245 214.939C904.159 212.046 900.69 209.677 897.012 207.732Z" fill="black"/>
<path d="M1090.91 143.939L978.411 268.939H964.464V160.087H921.964V144.087H980.464V242.74L1069.38 143.939H1090.91Z" fill="black"/>
<path d="M1090.91 268.986H1074.91V178.486H1090.91V268.986Z" fill="black"/>
<path fill-rule="evenodd" clip-rule="evenodd" d="M263.5 0.455811L312.093 104.486H1379V120.486H301.907L279.5 72.5155V313.138L213 196.638V272.781L146.432 159.986H0V143.986H155.568L197 214.19V136.333L263.5 252.833V0.455811Z" fill="black"/>
<path d="M598 159.986V143.986H557.5V240.872L468.315 146.491L454.5 146.496V252.986H425V268.986H470.5V172.1L562.191 268.986H573.5V159.986H598Z" fill="black"/>
<path fill-rule="evenodd" clip-rule="evenodd" d="M622 143.986H614V268.986H622C641.265 268.986 664.533 268.504 683.021 260.596C692.489 256.545 701.025 250.43 707.134 241.228C713.242 232.027 716.5 220.38 716.5 205.986C716.5 191.595 713.243 179.989 707.108 170.861C700.972 161.732 692.403 155.748 682.928 151.836C664.456 144.21 641.175 143.986 622 143.986ZM676.822 166.626C663.817 161.257 647.11 160.207 630 160.022V252.936C647.044 252.697 663.745 251.439 676.729 245.885C684.011 242.77 689.788 238.428 693.804 232.379C697.82 226.329 700.5 217.931 700.5 205.986C700.5 194.037 697.819 185.723 693.829 179.787C689.841 173.853 684.097 169.629 676.822 166.626Z" fill="black"/>
<path d="M809 159.986V143.986H733.5V268.986H809V252.986H749.5V214.486H809V198.486H749.5V159.986H809Z" fill="black"/>
<path d="M1194.5 252.986H1140V143.986H1124V268.986H1194.5V252.986Z" fill="black"/>
<path d="M1285.5 252.986H1231V143.986H1215V268.986H1285.5V252.986Z" fill="black"/>
<path d="M1379 159.986V143.986H1303.5V268.986H1379V252.986H1319.5V214.486H1379V198.486H1319.5V159.986H1379Z" fill="black"/>
<path fill-rule="evenodd" clip-rule="evenodd" d="M365 252.986C390.681 252.986 411.5 232.167 411.5 206.486C411.5 180.804 390.681 159.986 365 159.986C339.319 159.986 318.5 180.804 318.5 206.486C318.5 232.167 339.319 252.986 365 252.986ZM365 268.986C399.518 268.986 427.5 241.003 427.5 206.486C427.5 171.968 399.518 143.986 365 143.986C330.482 143.986 302.5 171.968 302.5 206.486C302.5 241.003 330.482 268.986 365 268.986Z" fill="black"/>
</svg>
